<svg id="Aperture--Streamline-Carbon" xmlns="http://www.w3.org/2000/svg" viewBox="0 0 16 16" height="16" width="16">
  <desc>
    Aperture Streamline Icon: https://streamlinehq.com
  </desc>
  <defs></defs>
  <title>aperture</title>
  <path d="M8 1a7 7 0 1 0 7 7A7 7 0 0 0 8 1Zm5.92 6.07L11 8.76V2.81a6 6 0 0 1 2.92 4.26ZM6 9.34v-2.68L8 5.5l2 1.155v2.68L8 10.5Zm4 -7V5.5l-4.83 -2.79A5.95 5.95 0 0 1 10 2.35Zm-5.76 1L7 4.925 2 7.81a6 6 0 0 1 2.24 -4.48ZM2.08 8.925 5 7.235v5.955a6 6 0 0 1 -2.92 -4.265ZM6 13.65V10.5l4.835 2.79A5.96 5.96 0 0 1 8 14a6.025 6.025 0 0 1 -2 -0.35Zm5.76 -1L9 11.07l5 -2.885a6 6 0 0 1 -2.24 4.485Z" fill="#000000" stroke-width="0.5"></path>
  <path id="_Transparent_Rectangle_" d="M0 0h16v16H0Z" fill="none" stroke-width="0.5"></path>
</svg>